            <svg width="21" height="21" viewBox="0 0 21 21" fill="none" xmlns="http://www.w3.org/2000/svg">
                <path fill-rule="evenodd" clip-rule="evenodd" d="M11.5 8.28474C11.5 6.66556 10.15 5.34077 8.49999 5.34077C6.84999 5.34077 5.49999 6.66556 5.49999 8.28474C5.49999 9.90392 6.84999 11.2287 8.49999 11.2287C10.15 11.2287 11.5 9.90392 11.5 8.28474ZM8.49999 9.26606C7.94999 9.26606 7.49999 8.82447 7.49999 8.28474C7.49999 7.74501 7.94999 7.30342 8.49999 7.30342C9.04999 7.30342 9.49999 7.74501 9.49999 8.28474C9.49999 8.82447 9.04999 9.26606 8.49999 9.26606ZM15 11.2287C16.11 11.2287 17 10.3553 17 9.26606C17 8.17679 16.11 7.30342 15 7.30342C13.89 7.30342 12.99 8.17679 13 9.26606C13 10.3553 13.89 11.2287 15 11.2287ZM10.99 0.44397C5.46999 0.44397 0.98999 4.8403 0.98999 10.2572C0.98999 15.6741 5.46999 20.0704 10.99 20.0704C16.51 20.0704 20.99 15.6741 20.99 10.2572C20.99 4.8403 16.51 0.44397 10.99 0.44397ZM4.83999 15.2718C5.51999 14.7418 7.10999 14.1825 8.49999 14.1825C8.56999 14.1825 8.64999 14.1923 8.72999 14.1923C8.96999 13.5643 9.39999 12.9264 10.03 12.367C9.46999 12.2689 8.93999 12.21 8.49999 12.21C7.19999 12.21 5.10999 12.6516 3.76999 13.6133C3.26999 12.5927 2.98999 11.4544 2.98999 10.2474C2.98999 5.91975 6.57999 2.3968 10.99 2.3968C15.4 2.3968 18.99 5.91975 18.99 10.2474C18.99 11.425 18.72 12.5437 18.24 13.5544C17.24 12.9755 15.88 12.7007 15 12.7007C13.48 12.7007 10.5 13.4956 10.5 15.3503V18.0783C8.22999 17.9508 6.20999 16.8909 4.83999 15.2718V15.2718Z" fill="#9A9AB0" />
            </svg>